<?xml version="1.0" encoding="utf-8"?>
<!-- Generator: Adobe Illustrator 27.5.0, SVG Export Plug-In . SVG Version: 6.00 Build 0)  -->
<svg version="1.1" id="Layer_1" xmlns="http://www.w3.org/2000/svg" xmlns:xlink="http://www.w3.org/1999/xlink" x="0px" y="0px"
	 viewBox="0 0 141.395 146.4" style="enable-background:new 0 0 141.395 146.4;" xml:space="preserve">
<g>
	<g>
		<g>
			<path style="fill:#C2C2C2;" d="M64.306,90.576v7.817c0,0,0.306,3.75-5.161,4.965c-5.466,1.215-13.274,3.5-13.274,3.5
				l30.409,9.283l14.604-4.82c0,0,4.725-1.953,4.725-6.594v-9.137L64.306,90.576z"/>
			<path style="fill:#A1A1A1;" d="M76.28,116.542c-0.039,0-0.079-0.005-0.117-0.017l-30.409-9.284
				c-0.17-0.051-0.285-0.209-0.284-0.385c0.001-0.178,0.118-0.333,0.288-0.383c0.078-0.022,7.884-2.303,13.3-3.506
				c5.034-1.119,4.858-4.405,4.848-4.545l-0.001-7.847c0-0.118,0.052-0.229,0.141-0.306c0.088-0.075,0.206-0.106,0.323-0.09
				l31.303,5.016c0.194,0.031,0.337,0.197,0.337,0.395v9.137c0,4.853-4.769,6.88-4.973,6.964l-14.631,4.831
				C76.365,116.537,76.322,116.542,76.28,116.542z M47.28,106.87l28.995,8.852l14.483-4.781c0.017-0.008,4.45-1.902,4.45-6.213
				v-8.795l-30.502-4.887v7.348c0.002,0.008,0.267,4.08-5.474,5.355C55.164,104.653,49.733,106.171,47.28,106.87z"/>
		</g>
		<path style="opacity:0.5;fill:#7F7E7E;" d="M63.359,101.028c6.823,2.158,27.239,7.263,30.486,8.129
			c0.95-1.051,1.764-2.508,1.764-4.43v-9.137l-31.303-5.015v7.817C64.306,98.394,64.403,99.705,63.359,101.028z"/>
		<g>
			<g>
				<path style="fill:#A2A2A2;" d="M130.489,19.411L42.995,2.718c0,0-2.806-0.57-5.393,0.881h-0.001l-5.898,3.325l2.457,2.595
					c-0.251,1.307-0.378,2.714-0.378,4.129v58.651c0,0-1.134,4.283,2.645,6.075c3.737,1.771,87.588,27.555,89.548,28.156
					l3.251,3.441l6.521-3.635c0.251-0.117,0.489-0.252,0.718-0.398l0,0l0,0c1.382-0.891,2.35-2.348,2.408-4.69V28.189
					C138.873,28.189,139.063,20.403,130.489,19.411z"/>
				<path style="fill:#808080;" d="M129.225,110.372c-0.108,0-0.214-0.043-0.292-0.125l-3.18-3.365
					c-3.391-1.041-85.778-26.382-89.5-28.146c-3.791-1.797-2.994-5.95-2.875-6.482V13.649c0-1.386,0.117-2.732,0.348-4.002
					L31.411,7.2c-0.085-0.089-0.124-0.213-0.105-0.335c0.019-0.122,0.092-0.229,0.199-0.29l5.899-3.325
					c2.766-1.549,5.616-0.937,5.671-0.924l87.49,16.691c8.805,1.019,8.711,9.1,8.708,9.182v73.049
					c-0.056,2.267-0.928,3.956-2.592,5.026c-0.245,0.157-0.499,0.301-0.766,0.426l-6.496,3.621
					C129.358,110.354,129.292,110.372,129.225,110.372z M32.346,7.021l2.104,2.223c0.088,0.094,0.126,0.225,0.102,0.352
					c-0.246,1.279-0.371,2.643-0.371,4.053v58.651c0,0.034-0.005,0.069-0.013,0.103c-0.043,0.162-0.998,3.985,2.43,5.61
					c3.729,1.769,88.636,27.873,89.493,28.137c0.066,0.019,0.125,0.057,0.173,0.106l3.038,3.215l6.25-3.482
					c0.259-0.123,0.482-0.248,0.697-0.387c1.446-0.932,2.174-2.358,2.224-4.363V28.189c0.006-0.311,0.068-7.443-8.029-8.381
					L42.92,3.111c-0.022-0.005-2.646-0.552-5.122,0.838L32.346,7.021z"/>
			</g>
			<g>
				<path style="fill:#A2A2A2;" d="M130.489,19.411L42.995,2.718c0,0-2.806-0.57-5.393,0.881h-0.001l-5.898,3.325l2.457,2.595
					c-0.251,1.307-0.378,2.714-0.378,4.129v58.651c0,0-1.134,4.283,2.645,6.075c3.737,1.771,87.588,27.555,89.548,28.156
					l3.251,3.441l6.521-3.635c0.251-0.117,0.489-0.252,0.718-0.398l0,0l0,0c1.382-0.891,2.35-2.348,2.408-4.69V28.189
					C138.873,28.189,139.063,20.403,130.489,19.411z"/>
				<path style="fill:#808080;" d="M129.225,110.372c-0.108,0-0.214-0.043-0.292-0.125l-3.18-3.365
					c-3.391-1.041-85.778-26.382-89.5-28.146c-3.791-1.797-2.994-5.95-2.875-6.482V13.649c0-1.386,0.117-2.732,0.348-4.002
					L31.411,7.2c-0.085-0.089-0.124-0.213-0.105-0.335c0.019-0.122,0.092-0.229,0.199-0.29l5.899-3.325
					c2.766-1.549,5.616-0.937,5.671-0.924l87.49,16.691c8.805,1.019,8.711,9.1,8.708,9.182v73.049
					c-0.056,2.267-0.928,3.956-2.592,5.026c-0.245,0.157-0.499,0.301-0.766,0.426l-6.496,3.621
					C129.358,110.354,129.292,110.372,129.225,110.372z M32.346,7.021l2.104,2.223c0.088,0.094,0.126,0.225,0.102,0.352
					c-0.246,1.279-0.371,2.643-0.371,4.053v58.651c0,0.034-0.005,0.069-0.013,0.103c-0.043,0.162-0.998,3.985,2.43,5.61
					c3.729,1.769,88.636,27.873,89.493,28.137c0.066,0.019,0.125,0.057,0.173,0.106l3.038,3.215l6.25-3.482
					c0.259-0.123,0.482-0.248,0.697-0.387c1.446-0.932,2.174-2.358,2.224-4.363V28.189c0.006-0.311,0.068-7.443-8.029-8.381
					L42.92,3.111c-0.022-0.005-2.646-0.552-5.122,0.838L32.346,7.021z"/>
			</g>
			<g>
				<path style="fill:#DFF0F4;" d="M27.384,17.226l0.095,64.223c0,0-0.454,3.343,5.144,5.346
					c3.938,1.409,86.999,23.329,86.999,23.329s12.644,3.364,12.854-5.298l0.048-71.381c0,0,1.083-8.93-7.705-9.64L36.599,6.295
					c0,0-3.12-0.637-5.812,1.134C28.376,9.014,27.384,13.107,27.384,17.226z"/>
				<path style="fill:#A1A1A1;" d="M124.777,111.166C124.776,111.166,124.776,111.166,124.777,111.166
					c-2.76,0-5.158-0.629-5.259-0.657c-3.391-0.894-83.121-21.938-87.03-23.338c-5.837-2.088-5.426-5.626-5.406-5.777l-0.098-64.167
					c0-2.338,0.349-8.005,3.583-10.132c2.819-1.857,6.055-1.204,6.112-1.192l88.22,17.508c2.628,0.21,4.692,1.187,6.089,2.898
					c2.415,2.958,1.956,7.012,1.935,7.184l-0.045,71.333C132.776,108.977,129.975,111.166,124.777,111.166z M35.219,6.584
					c-1.103,0-2.73,0.205-4.212,1.18c-2.018,1.326-3.222,4.864-3.222,9.461l0.095,64.222c-0.018,0.177-0.309,3.112,4.878,4.968
					c3.877,1.389,86.135,23.102,86.965,23.32c0.024,0.006,2.403,0.629,5.053,0.629c0,0,0,0,0.001,0c4.753,0,7.209-1.867,7.298-5.549
					l0.048-71.371c0.008-0.087,0.439-3.944-1.761-6.633c-1.253-1.532-3.13-2.41-5.576-2.606L36.52,6.688
					C36.513,6.686,35.995,6.584,35.219,6.584z"/>
			</g>
		</g>
		<g>
			<g>
				<path style="fill:#515151;" d="M131.109,36.102c0,0,1.056-8.691-7.496-9.381L37.765,9.684c0,0-3.035-0.621-5.656,1.102
					c-2.345,1.542-3.31,5.524-3.31,9.533l0.076,51.501L131.07,96.745L131.109,36.102z"/>
				<path style="fill:#515151;" d="M131.07,97.146c-0.031,0-0.064-0.004-0.095-0.012L28.78,72.21
					c-0.18-0.044-0.306-0.205-0.306-0.388L28.398,20.32c0-2.278,0.34-7.796,3.491-9.869c2.749-1.808,5.9-1.173,5.957-1.161
					l85.847,17.037c2.56,0.205,4.571,1.156,5.931,2.823c2.354,2.883,1.906,6.832,1.885,6.999l-0.037,60.595
					c0,0.123-0.056,0.24-0.153,0.316C131.247,97.118,131.158,97.146,131.07,97.146z M29.275,71.506l101.394,24.729l0.04-60.133
					c0.007-0.085,0.428-3.836-1.71-6.449c-1.218-1.489-3.04-2.341-5.418-2.533L37.686,10.077c-0.016-0.005-2.903-0.568-5.358,1.045
					c-1.959,1.288-3.129,4.727-3.129,9.198L29.275,71.506z"/>
			</g>
		</g>
		<g>
			<path style="opacity:0.4;fill:#757575;" d="M70.277,34.946c8.424-4.649,16.881-9.241,25.368-13.777l-3.93-0.779
				c-10.759,5.455-21.634,10.698-32.305,16.321c-10.256,5.405-20.408,11.001-30.565,16.586l0.007,4.984
				C42.867,50.892,56.434,42.586,70.277,34.946z"/>
			<path style="opacity:0.4;fill:#757575;" d="M112.552,68.744c6.182-2.999,12.372-5.986,18.543-9.007l0.01-17.625
				c-11.458,5.974-22.992,11.808-34.428,17.824c-11.232,5.911-22.266,12.11-33.237,18.485c-0.743,0.43-1.486,0.856-2.23,1.286
				l20.139,4.911C91.717,79.264,102.051,73.834,112.552,68.744z"/>
		</g>
	</g>
	<g>
		<g>
			<polygon style="fill:#BAC3C4;" points="27.83,109.405 2.522,117.102 2.522,119.188 79.254,140.282 104.763,129.148 
				104.763,127.06 			"/>
			<path style="fill:#A1A1A1;" d="M79.254,140.684c-0.036,0-0.072-0.005-0.106-0.015L2.415,119.575
				c-0.174-0.049-0.294-0.207-0.294-0.387v-2.087c0-0.177,0.115-0.333,0.284-0.384l25.308-7.695
				c0.066-0.021,0.139-0.025,0.206-0.007l76.933,17.654c0.182,0.042,0.311,0.204,0.311,0.39v2.088c0,0.16-0.094,0.304-0.24,0.367
				l-25.51,11.136C79.363,140.673,79.308,140.684,79.254,140.684z M2.922,118.882l76.301,20.978l25.139-10.974v-1.506
				l-76.518-17.561l-24.921,7.58V118.882z"/>
		</g>
		<g>
			<polygon style="fill:#DFF0F4;" points="27.83,107.319 2.522,117.102 79.254,138.196 104.763,127.06 			"/>
			<path style="fill:#A1A1A1;" d="M79.254,138.597c-0.036,0-0.072-0.004-0.106-0.014L2.415,117.487
				c-0.166-0.046-0.285-0.192-0.294-0.366c-0.009-0.173,0.094-0.331,0.256-0.394l25.308-9.783c0.079-0.029,0.164-0.033,0.245-0.014
				l76.933,19.741c0.165,0.044,0.287,0.186,0.301,0.356c0.013,0.171-0.082,0.33-0.239,0.399l-25.51,11.136
				C79.363,138.585,79.308,138.597,79.254,138.597z M3.799,117.036l75.424,20.736l24.313-10.613l-75.682-19.42L3.799,117.036z"/>
		</g>
		<g>
			<g>
				<polygon style="fill:#DFF0F4;" points="79.086,125.3 84.472,123.382 75.798,121.161 70.628,123.001 				"/>
				<path style="fill:#A1A1A1;" d="M79.086,125.7c-0.035,0-0.07-0.006-0.104-0.015l-8.458-2.297
					c-0.169-0.047-0.289-0.197-0.295-0.372c-0.007-0.175,0.101-0.335,0.266-0.394l5.17-1.839c0.075-0.027,0.156-0.031,0.233-0.012
					l8.674,2.221c0.171,0.045,0.293,0.194,0.301,0.369c0.008,0.178-0.1,0.338-0.265,0.398l-5.386,1.917
					C79.177,125.692,79.131,125.7,79.086,125.7z M71.967,122.95l7.103,1.93l4.031-1.436l-7.284-1.864L71.967,122.95z"/>
			</g>
			<g>
				<polygon style="fill:#DFF0F4;" points="36.795,113.812 41.099,112.278 32.425,110.059 28.337,111.514 				"/>
				<path style="fill:#A1A1A1;" d="M36.795,114.212c-0.036,0-0.07-0.004-0.104-0.014l-8.459-2.297
					c-0.169-0.047-0.289-0.198-0.295-0.373c-0.006-0.175,0.101-0.333,0.266-0.392l4.088-1.454c0.075-0.028,0.157-0.03,0.234-0.012
					l8.673,2.222c0.171,0.043,0.294,0.193,0.301,0.369c0.008,0.176-0.1,0.336-0.266,0.396l-4.304,1.531
					C36.886,114.204,36.84,114.212,36.795,114.212z M29.676,111.462l7.103,1.93l2.949-1.051l-7.283-1.863L29.676,111.462z"/>
			</g>
			<g>
				<polygon style="fill:#DFF0F4;" points="45.254,116.108 49.775,114.501 41.099,112.278 36.795,113.812 				"/>
				<path style="fill:#A1A1A1;" d="M45.254,116.509c-0.035,0-0.07-0.004-0.105-0.013l-8.458-2.298
					c-0.17-0.045-0.29-0.197-0.296-0.371c-0.006-0.176,0.101-0.334,0.266-0.394l4.304-1.532c0.076-0.027,0.157-0.029,0.233-0.01
					l8.676,2.221c0.171,0.043,0.293,0.193,0.301,0.369c0.008,0.176-0.1,0.337-0.266,0.396l-4.521,1.609
					C45.344,116.502,45.298,116.509,45.254,116.509z M38.134,113.761l7.103,1.928l3.166-1.125l-7.285-1.865L38.134,113.761z"/>
			</g>
			<g>
				<polygon style="fill:#DFF0F4;" points="87.545,127.597 93.146,125.603 84.472,123.382 79.086,125.3 				"/>
				<path style="fill:#A1A1A1;" d="M87.545,127.997c-0.036,0-0.071-0.004-0.105-0.014l-8.458-2.298
					c-0.169-0.046-0.29-0.196-0.295-0.371c-0.007-0.175,0.101-0.333,0.266-0.394l5.386-1.917c0.076-0.026,0.158-0.03,0.234-0.011
					l8.675,2.222c0.171,0.044,0.293,0.193,0.3,0.369c0.009,0.177-0.099,0.337-0.265,0.396l-5.602,1.994
					C87.635,127.99,87.59,127.997,87.545,127.997z M80.425,125.248l7.103,1.93l4.247-1.513l-7.285-1.865L80.425,125.248z"/>
			</g>
			<g>
				<polygon style="fill:#DFF0F4;" points="53.712,118.405 58.448,116.722 49.775,114.501 45.254,116.108 				"/>
				<path style="fill:#A1A1A1;" d="M53.712,118.807c-0.036,0-0.07-0.005-0.105-0.015l-8.458-2.296
					c-0.169-0.046-0.289-0.196-0.295-0.371c-0.007-0.175,0.1-0.335,0.265-0.394l4.521-1.609c0.076-0.027,0.156-0.03,0.234-0.01
					l8.674,2.221c0.17,0.044,0.293,0.194,0.3,0.371c0.009,0.175-0.099,0.336-0.266,0.396l-4.737,1.683
					C53.802,118.799,53.757,118.807,53.712,118.807z M46.593,116.058l7.103,1.929l3.381-1.202l-7.282-1.866L46.593,116.058z"/>
			</g>
			<g>
				<polygon style="fill:#DFF0F4;" points="62.169,120.704 67.123,118.942 58.448,116.722 53.712,118.405 				"/>
				<path style="fill:#A1A1A1;" d="M62.169,121.105c-0.036,0-0.071-0.005-0.105-0.015l-8.458-2.299
					c-0.169-0.045-0.289-0.197-0.295-0.371c-0.007-0.176,0.101-0.334,0.266-0.393l4.737-1.684c0.075-0.028,0.157-0.029,0.233-0.011
					l8.675,2.221c0.171,0.043,0.293,0.193,0.301,0.369c0.008,0.176-0.1,0.338-0.266,0.396l-4.954,1.763
					C62.26,121.099,62.215,121.105,62.169,121.105z M55.051,118.354l7.102,1.931l3.599-1.28l-7.285-1.865L55.051,118.354z"/>
			</g>
			<g>
				<polygon style="fill:#DFF0F4;" points="70.628,123.001 75.798,121.161 67.123,118.942 62.169,120.704 				"/>
				<path style="fill:#A1A1A1;" d="M70.628,123.401c-0.035,0-0.07-0.004-0.104-0.013l-8.459-2.298
					c-0.169-0.045-0.289-0.196-0.295-0.371c-0.006-0.175,0.101-0.335,0.266-0.393l4.954-1.764c0.075-0.025,0.157-0.029,0.233-0.01
					l8.674,2.219c0.172,0.045,0.294,0.195,0.301,0.37c0.008,0.177-0.1,0.337-0.266,0.397l-5.169,1.839
					C70.718,123.394,70.673,123.401,70.628,123.401z M63.509,120.653l7.102,1.928l3.815-1.357l-7.284-1.863L63.509,120.653z"/>
			</g>
			<g>
				<polygon style="fill:#DFF0F4;" points="36.795,113.812 29.39,116.446 37.848,118.744 45.254,116.108 				"/>
				<path style="fill:#A1A1A1;" d="M37.848,119.145c-0.035,0-0.07-0.005-0.104-0.015l-8.458-2.297
					c-0.169-0.046-0.289-0.197-0.295-0.371c-0.007-0.176,0.101-0.334,0.266-0.395l7.405-2.634c0.077-0.028,0.16-0.031,0.238-0.009
					l8.459,2.297c0.169,0.046,0.289,0.197,0.295,0.372c0.007,0.175-0.101,0.334-0.266,0.393l-7.405,2.634
					C37.94,119.138,37.894,119.145,37.848,119.145z M30.73,116.396l7.103,1.929l6.081-2.165l-7.102-1.929L30.73,116.396z"/>
			</g>
			<g>
				<polygon style="fill:#DFF0F4;" points="28.337,111.514 20.933,114.149 29.39,116.446 36.795,113.812 				"/>
				<path style="fill:#A1A1A1;" d="M29.39,116.847c-0.035,0-0.07-0.004-0.104-0.014l-8.458-2.297
					c-0.169-0.045-0.289-0.197-0.295-0.371c-0.006-0.176,0.101-0.334,0.266-0.393l7.404-2.637c0.078-0.029,0.161-0.031,0.24-0.01
					l8.458,2.299c0.169,0.045,0.289,0.196,0.296,0.371c0.006,0.175-0.101,0.335-0.266,0.393l-7.404,2.635
					C29.481,116.839,29.436,116.847,29.39,116.847z M22.272,114.098l7.102,1.929l6.081-2.164l-7.102-1.93L22.272,114.098z"/>
			</g>
			<g>
				<polygon style="fill:#DFF0F4;" points="71.681,127.934 80.139,130.232 87.545,127.597 79.086,125.3 				"/>
				<path style="fill:#A1A1A1;" d="M80.139,130.632c-0.036,0-0.071-0.004-0.105-0.013l-8.458-2.298
					c-0.169-0.047-0.289-0.197-0.295-0.371c-0.007-0.176,0.1-0.336,0.266-0.395l7.405-2.635c0.077-0.028,0.161-0.03,0.239-0.01
					l8.459,2.299c0.169,0.045,0.289,0.197,0.295,0.371c0.007,0.176-0.101,0.336-0.266,0.393l-7.405,2.636
					C80.23,130.624,80.185,130.632,80.139,130.632z M73.021,127.882l7.103,1.93l6.081-2.164l-7.103-1.929L73.021,127.882z"/>
			</g>
			<g>
				<polygon style="fill:#DFF0F4;" points="45.254,116.108 37.848,118.744 46.305,121.041 53.712,118.405 				"/>
				<path style="fill:#A1A1A1;" d="M46.305,121.442c-0.035,0-0.07-0.004-0.105-0.014l-8.456-2.299
					c-0.169-0.045-0.29-0.196-0.295-0.371c-0.007-0.175,0.101-0.334,0.266-0.393l7.405-2.635c0.077-0.027,0.161-0.031,0.239-0.01
					l8.458,2.297c0.169,0.047,0.289,0.197,0.295,0.371c0.007,0.176-0.1,0.334-0.266,0.393l-7.406,2.637
					C46.396,121.435,46.351,121.442,46.305,121.442z M39.188,118.692l7.101,1.93l6.082-2.165l-7.102-1.929L39.188,118.692z"/>
			</g>
			<g>
				<polygon style="fill:#DFF0F4;" points="53.712,118.405 46.305,121.041 54.765,123.339 62.169,120.704 				"/>
				<path style="fill:#A1A1A1;" d="M54.765,123.739c-0.036,0-0.07-0.003-0.104-0.013l-8.46-2.298
					c-0.169-0.045-0.288-0.197-0.295-0.371c-0.007-0.176,0.101-0.335,0.265-0.394l7.406-2.636c0.078-0.029,0.161-0.031,0.24-0.01
					l8.458,2.299c0.169,0.045,0.289,0.197,0.296,0.371c0.006,0.176-0.101,0.336-0.267,0.394l-7.405,2.636
					C54.855,123.732,54.81,123.739,54.765,123.739z M47.645,120.989l7.104,1.93l6.082-2.164l-7.103-1.93L47.645,120.989z"/>
			</g>
			<g>
				<polygon style="fill:#DFF0F4;" points="62.169,120.704 54.765,123.339 63.223,125.636 70.628,123.001 				"/>
				<path style="fill:#A1A1A1;" d="M63.223,126.037c-0.036,0-0.07-0.005-0.105-0.015l-8.457-2.296
					c-0.169-0.046-0.289-0.198-0.296-0.372c-0.006-0.176,0.101-0.334,0.266-0.393l7.405-2.635c0.077-0.027,0.161-0.031,0.239-0.01
					l8.458,2.297c0.169,0.046,0.289,0.197,0.295,0.371c0.007,0.176-0.101,0.335-0.266,0.394l-7.405,2.634
					C63.313,126.029,63.268,126.037,63.223,126.037z M56.104,123.288l7.102,1.929l6.082-2.165l-7.103-1.928L56.104,123.288z"/>
			</g>
			<g>
				<polygon style="fill:#DFF0F4;" points="70.628,123.001 63.223,125.636 71.681,127.934 79.086,125.3 				"/>
				<path style="fill:#A1A1A1;" d="M71.681,128.334c-0.035,0-0.07-0.003-0.105-0.013l-8.459-2.299
					c-0.168-0.045-0.289-0.197-0.295-0.371c-0.007-0.176,0.101-0.336,0.266-0.393l7.405-2.636c0.077-0.027,0.161-0.03,0.239-0.009
					l8.458,2.297c0.169,0.046,0.289,0.197,0.295,0.372c0.007,0.175-0.101,0.334-0.266,0.394l-7.404,2.635
					C71.772,128.327,71.727,128.334,71.681,128.334z M64.563,125.585l7.102,1.929l6.082-2.163l-7.102-1.93L64.563,125.585z"/>
			</g>
			<g>
				<polygon style="fill:#DFF0F4;" points="71.681,127.934 66.572,129.752 75.007,132.058 80.139,130.232 				"/>
				<path style="fill:#A1A1A1;" d="M75.007,132.458c-0.036,0-0.071-0.006-0.105-0.015l-8.436-2.305
					c-0.17-0.046-0.289-0.196-0.295-0.372c-0.006-0.174,0.101-0.334,0.266-0.392l5.109-1.819c0.079-0.027,0.162-0.031,0.24-0.009
					l8.458,2.298c0.168,0.046,0.289,0.196,0.295,0.371c0.007,0.175-0.101,0.334-0.266,0.394l-5.132,1.825
					C75.098,132.451,75.053,132.458,75.007,132.458z M67.908,129.702l7.084,1.936l3.808-1.355l-7.103-1.93L67.908,129.702z"/>
			</g>
			<g>
				<polygon style="fill:#DFF0F4;" points="75.007,132.058 83.1,134.269 87.879,132.335 80.139,130.232 				"/>
				<path style="fill:#A1A1A1;" d="M83.1,134.669c-0.036,0-0.071-0.006-0.105-0.015l-8.093-2.211
					c-0.169-0.046-0.289-0.196-0.295-0.371c-0.006-0.175,0.101-0.333,0.266-0.393l5.132-1.826c0.077-0.028,0.161-0.031,0.239-0.009
					l7.739,2.102c0.166,0.047,0.285,0.193,0.296,0.363c0.01,0.173-0.09,0.331-0.25,0.396l-4.778,1.934
					C83.202,134.66,83.151,134.669,83.1,134.669z M76.343,132.008l6.732,1.839l3.551-1.438l-6.471-1.758L76.343,132.008z"/>
			</g>
			<g>
				<polygon style="fill:#DFF0F4;" points="32.425,110.059 28.133,108.96 24.289,110.413 28.337,111.514 				"/>
				<path style="fill:#A1A1A1;" d="M28.337,111.914c-0.036,0-0.07-0.005-0.105-0.013l-4.047-1.1
					c-0.168-0.047-0.287-0.195-0.295-0.369c-0.009-0.174,0.095-0.332,0.258-0.395l3.844-1.453c0.078-0.029,0.162-0.035,0.241-0.013
					l4.293,1.098c0.171,0.045,0.293,0.194,0.301,0.37c0.008,0.177-0.1,0.337-0.267,0.396l-4.087,1.455
					C28.428,111.907,28.382,111.914,28.337,111.914z M25.588,110.351l2.733,0.743l2.733-0.973l-2.897-0.741L25.588,110.351z"/>
			</g>
			<g>
				<polygon style="fill:#DFF0F4;" points="54.765,123.339 49.699,125.142 58.134,127.446 63.223,125.636 				"/>
				<path style="fill:#A1A1A1;" d="M58.134,127.847c-0.036,0-0.071-0.006-0.105-0.015l-8.435-2.305
					c-0.169-0.046-0.289-0.196-0.295-0.371c-0.006-0.175,0.101-0.335,0.266-0.393l5.065-1.802c0.077-0.028,0.16-0.031,0.239-0.01
					l8.458,2.297c0.169,0.045,0.289,0.197,0.295,0.371c0.006,0.176-0.101,0.336-0.266,0.393l-5.089,1.813
					C58.225,127.84,58.179,127.847,58.134,127.847z M51.036,125.092l7.083,1.935l3.765-1.34l-7.102-1.928L51.036,125.092z"/>
			</g>
			<g>
				<polygon style="fill:#DFF0F4;" points="93.146,125.603 87.545,127.597 94.748,129.554 100.106,127.385 				"/>
				<path style="fill:#A1A1A1;" d="M94.748,129.954c-0.035,0-0.07-0.005-0.104-0.014l-7.205-1.957
					c-0.169-0.045-0.289-0.197-0.295-0.371c-0.007-0.176,0.101-0.334,0.266-0.393l5.602-1.996c0.076-0.025,0.157-0.029,0.234-0.009
					l6.96,1.782c0.167,0.042,0.289,0.188,0.3,0.36c0.011,0.173-0.089,0.335-0.25,0.399l-5.358,2.168
					C94.851,129.944,94.799,129.954,94.748,129.954z M88.883,127.545l5.84,1.587l4.103-1.662l-5.66-1.449L88.883,127.545z"/>
			</g>
			<g>
				<polygon style="fill:#DFF0F4;" points="80.139,130.232 87.879,132.335 94.748,129.554 87.545,127.597 				"/>
				<path style="fill:#A1A1A1;" d="M87.879,132.735c-0.035,0-0.07-0.005-0.105-0.015l-7.739-2.102
					c-0.169-0.047-0.289-0.198-0.295-0.372c-0.007-0.176,0.101-0.335,0.266-0.394l7.405-2.634c0.077-0.029,0.16-0.031,0.239-0.01
					l7.205,1.956c0.166,0.046,0.285,0.192,0.295,0.362c0.01,0.173-0.09,0.332-0.25,0.396l-6.87,2.781
					C87.981,132.726,87.93,132.735,87.879,132.735z M81.479,130.181l6.375,1.731l5.642-2.284l-5.935-1.612L81.479,130.181z"/>
			</g>
			<g>
				<polygon style="fill:#DFF0F4;" points="63.223,125.636 58.134,127.446 66.572,129.752 71.681,127.934 				"/>
				<path style="fill:#A1A1A1;" d="M66.572,130.153c-0.036,0-0.071-0.006-0.105-0.015l-8.438-2.307
					c-0.169-0.046-0.289-0.196-0.295-0.371c-0.007-0.175,0.101-0.333,0.266-0.393l5.089-1.81c0.078-0.029,0.16-0.031,0.239-0.01
					l8.458,2.298c0.169,0.046,0.289,0.197,0.295,0.372c0.007,0.175-0.101,0.332-0.265,0.392l-5.109,1.818
					C66.663,130.145,66.617,130.153,66.572,130.153z M59.47,127.396l7.086,1.936l3.786-1.349l-7.103-1.929L59.47,127.396z"/>
			</g>
			<g>
				<polygon style="fill:#DFF0F4;" points="20.933,114.149 15.954,115.921 24.389,118.226 29.39,116.446 				"/>
				<path style="fill:#A1A1A1;" d="M24.389,118.626c-0.036,0-0.071-0.005-0.106-0.015l-8.435-2.306
					c-0.169-0.045-0.289-0.195-0.294-0.371c-0.007-0.174,0.101-0.334,0.266-0.393l4.979-1.77c0.077-0.028,0.16-0.031,0.239-0.01
					l8.458,2.296c0.169,0.046,0.289,0.196,0.295,0.371c0.007,0.177-0.101,0.335-0.266,0.394l-5.002,1.779
					C24.48,118.618,24.435,118.626,24.389,118.626z M17.291,115.87l7.083,1.936l3.677-1.309l-7.102-1.929L17.291,115.87z"/>
			</g>
			<g>
				<polygon style="fill:#DFF0F4;" points="17.14,113.118 12.341,114.933 15.954,115.921 20.933,114.149 				"/>
				<path style="fill:#A1A1A1;" d="M15.954,116.321c-0.036,0-0.071-0.006-0.106-0.016l-3.612-0.986
					c-0.168-0.045-0.287-0.195-0.295-0.367c-0.008-0.174,0.096-0.332,0.258-0.395l4.798-1.813c0.081-0.031,0.165-0.035,0.247-0.013
					l3.792,1.031c0.169,0.045,0.29,0.197,0.295,0.371c0.007,0.176-0.101,0.335-0.266,0.393l-4.979,1.771
					C16.044,116.313,15.999,116.321,15.954,116.321z M13.637,114.872l2.301,0.629l3.655-1.301l-2.433-0.662L13.637,114.872z"/>
			</g>
			<g>
				<polygon style="fill:#DFF0F4;" points="28.337,111.514 24.289,110.413 17.14,113.118 20.933,114.149 				"/>
				<path style="fill:#A1A1A1;" d="M20.933,114.55c-0.036,0-0.071-0.004-0.105-0.014l-3.792-1.03
					c-0.169-0.047-0.287-0.194-0.295-0.368c-0.008-0.174,0.096-0.332,0.258-0.394l7.149-2.706c0.08-0.031,0.166-0.035,0.247-0.012
					l4.047,1.1c0.169,0.047,0.289,0.197,0.295,0.371c0.007,0.176-0.1,0.335-0.265,0.395l-7.405,2.635
					C21.024,114.543,20.978,114.55,20.933,114.55z M18.438,113.056l2.479,0.674l6.082-2.165l-2.689-0.729L18.438,113.056z"/>
			</g>
			<g>
				<polygon style="fill:#DFF0F4;" points="37.848,118.744 32.826,120.531 41.262,122.837 46.305,121.041 				"/>
				<path style="fill:#A1A1A1;" d="M41.262,123.237c-0.036,0-0.071-0.006-0.105-0.015l-8.435-2.306
					c-0.169-0.045-0.289-0.196-0.295-0.371c-0.007-0.174,0.101-0.334,0.266-0.393l5.022-1.787c0.078-0.029,0.161-0.03,0.239-0.01
					l8.457,2.299c0.169,0.045,0.289,0.196,0.295,0.371c0.007,0.175-0.1,0.333-0.266,0.393l-5.043,1.795
					C41.352,123.229,41.307,123.237,41.262,123.237z M34.162,120.481l7.083,1.936l3.721-1.324l-7.102-1.93L34.162,120.481z"/>
			</g>
			<g>
				<polygon style="fill:#DFF0F4;" points="29.39,116.446 24.389,118.226 32.826,120.531 37.848,118.744 				"/>
				<path style="fill:#A1A1A1;" d="M32.826,120.933c-0.036,0-0.071-0.006-0.105-0.016l-8.437-2.306
					c-0.169-0.046-0.288-0.196-0.295-0.371c-0.006-0.175,0.101-0.335,0.266-0.393l5.001-1.779c0.077-0.027,0.16-0.029,0.239-0.009
					l8.458,2.298c0.169,0.045,0.289,0.197,0.295,0.371c0.007,0.176-0.101,0.335-0.266,0.394l-5.022,1.788
					C32.917,120.925,32.872,120.933,32.826,120.933z M25.725,118.175l7.085,1.938l3.699-1.317l-7.102-1.929L25.725,118.175z"/>
			</g>
			<g>
				<polygon style="fill:#DFF0F4;" points="46.305,121.041 41.262,122.837 49.699,125.142 54.765,123.339 				"/>
				<path style="fill:#A1A1A1;" d="M49.699,125.542c-0.036,0-0.071-0.006-0.105-0.015l-8.438-2.305
					c-0.169-0.046-0.289-0.196-0.294-0.372c-0.007-0.174,0.1-0.334,0.266-0.393l5.043-1.794c0.077-0.028,0.161-0.03,0.239-0.009
					l8.459,2.297c0.169,0.046,0.289,0.197,0.295,0.371c0.007,0.176-0.101,0.335-0.267,0.394l-5.065,1.801
					C49.79,125.535,49.745,125.542,49.699,125.542z M42.599,122.786l7.085,1.936l3.741-1.332l-7.103-1.929L42.599,122.786z"/>
			</g>
		</g>
	</g>
	<g>
		<path style="fill:#DFF0F4;" d="M123.784,132.837c0,0-2.125-4.729-10.526-3.085c-8.401,1.643-16.804,5.956-16.297,10.53
			c0.505,4.576,7.158,3.868,12.132,2.45C114.067,141.315,126.621,138.06,123.784,132.837z"/>
		<path style="fill:#A1A1A1;" d="M102.475,144.204C102.475,144.204,102.475,144.204,102.475,144.204
			c-4.534,0-5.718-2.107-5.913-3.877c-0.543-4.908,8.157-9.314,16.619-10.969c1.202-0.234,2.35-0.354,3.41-0.354
			c5.844,0,7.492,3.519,7.559,3.669c0.526,0.964,0.593,1.957,0.187,2.92c-1.559,3.694-9.922,6.055-14.415,7.32l-0.719,0.204
			C107.462,143.614,104.882,144.204,102.475,144.204z M116.59,129.806c-1.009,0-2.104,0.115-3.255,0.34
			c-8.225,1.608-16.449,5.822-15.976,10.094c0.232,2.1,1.953,3.164,5.115,3.164c0.001,0,0.001,0,0.001,0
			c2.315,0,4.816-0.574,6.507-1.057l0.721-0.204c4.053-1.143,12.485-3.522,13.894-6.862c0.311-0.736,0.256-1.474-0.166-2.252
			C123.359,132.872,121.888,129.806,116.59,129.806z"/>
	</g>
	<path style="opacity:0.5;fill:#7F7E7E;" d="M123.784,132.837c0,0-2.125-4.729-10.526-3.085c-8.401,1.643-16.804,5.956-16.297,10.53
		c0.505,4.576,7.158,3.868,12.132,2.45C114.067,141.315,126.621,138.06,123.784,132.837z M108.073,140.331
		c-3.435,0.979-8.03,1.467-8.379-1.692c-0.35-3.159,5.454-6.138,11.256-7.273c5.802-1.135,7.271,2.131,7.271,2.131
		C120.178,137.105,111.509,139.352,108.073,140.331z"/>
</g>
</svg>
